<svg width="30" height="30" viewBox="0 0 30 30" fill="none" xmlns="http://www.w3.org/2000/svg">
<path d="M4.88889 29C4.09445 29 3.41411 28.7256 2.84789 28.1768C2.28167 27.628 1.99904 26.9691 2 26.2V6.6C2 5.83 2.28311 5.1706 2.84934 4.6218C3.41556 4.073 4.09541 3.79907 4.88889 3.8H6.33333V2.4C6.33333 2.00334 6.472 1.6706 6.74934 1.4018C7.02667 1.133 7.36948 0.999072 7.77778 1C8.18704 1 8.53033 1.1344 8.80767 1.4032C9.085 1.672 9.22319 2.00427 9.22222 2.4V3.8H20.7778V2.4C20.7778 2.00334 20.9164 1.6706 21.1938 1.4018C21.4711 1.133 21.8139 0.999072 22.2222 1C22.6315 1 22.9748 1.1344 23.2521 1.4032C23.5294 1.672 23.6676 2.00427 23.6667 2.4V3.8H25.1111C25.9056 3.8 26.5859 4.0744 27.1521 4.6232C27.7183 5.172 28.001 5.83094 28 6.6V26.2C28 26.97 27.7169 27.6294 27.1507 28.1782C26.5844 28.727 25.9046 29.0009 25.1111 29H4.88889ZM4.88889 26.2H25.1111V12.2H4.88889V26.2ZM15 17.8C14.5907 17.8 14.2474 17.6656 13.9701 17.3968C13.6928 17.128 13.5546 16.7957 13.5556 16.4C13.5556 16.0033 13.6942 15.6706 13.9716 15.4018C14.2489 15.133 14.5917 14.9991 15 15C15.4093 15 15.7526 15.1344 16.0299 15.4032C16.3072 15.672 16.4454 16.0043 16.4444 16.4C16.4444 16.7967 16.3058 17.1294 16.0284 17.3982C15.7511 17.667 15.4083 17.8009 15 17.8ZM9.22222 17.8C8.81296 17.8 8.46967 17.6656 8.19234 17.3968C7.915 17.128 7.77682 16.7957 7.77778 16.4C7.77778 16.0033 7.91645 15.6706 8.19378 15.4018C8.47111 15.133 8.81393 14.9991 9.22222 15C9.63148 15 9.97478 15.1344 10.2521 15.4032C10.5294 15.672 10.6676 16.0043 10.6667 16.4C10.6667 16.7967 10.528 17.1294 10.2507 17.3982C9.97333 17.667 9.63052 17.8009 9.22222 17.8ZM20.7778 17.8C20.3685 17.8 20.0252 17.6656 19.7479 17.3968C19.4706 17.128 19.3324 16.7957 19.3333 16.4C19.3333 16.0033 19.472 15.6706 19.7493 15.4018C20.0267 15.133 20.3695 14.9991 20.7778 15C21.187 15 21.5303 15.1344 21.8077 15.4032C22.085 15.672 22.2232 16.0043 22.2222 16.4C22.2222 16.7967 22.0836 17.1294 21.8062 17.3982C21.5289 17.667 21.1861 17.8009 20.7778 17.8ZM15 23.4C14.5907 23.4 14.2474 23.2656 13.9701 22.9968C13.6928 22.728 13.5546 22.3957 13.5556 22C13.5556 21.6033 13.6942 21.2706 13.9716 21.0018C14.2489 20.733 14.5917 20.5991 15 20.6C15.4093 20.6 15.7526 20.7344 16.0299 21.0032C16.3072 21.272 16.4454 21.6043 16.4444 22C16.4444 22.3967 16.3058 22.7294 16.0284 22.9982C15.7511 23.267 15.4083 23.4009 15 23.4ZM9.22222 23.4C8.81296 23.4 8.46967 23.2656 8.19234 22.9968C7.915 22.728 7.77682 22.3957 7.77778 22C7.77778 21.6033 7.91645 21.2706 8.19378 21.0018C8.47111 20.733 8.81393 20.5991 9.22222 20.6C9.63148 20.6 9.97478 20.7344 10.2521 21.0032C10.5294 21.272 10.6676 21.6043 10.6667 22C10.6667 22.3967 10.528 22.7294 10.2507 22.9982C9.97333 23.267 9.63052 23.4009 9.22222 23.4ZM20.7778 23.4C20.3685 23.4 20.0252 23.2656 19.7479 22.9968C19.4706 22.728 19.3324 22.3957 19.3333 22C19.3333 21.6033 19.472 21.2706 19.7493 21.0018C20.0267 20.733 20.3695 20.5991 20.7778 20.6C21.187 20.6 21.5303 20.7344 21.8077 21.0032C22.085 21.272 22.2232 21.6043 22.2222 22C22.2222 22.3967 22.0836 22.7294 21.8062 22.9982C21.5289 23.267 21.1861 23.4009 20.7778 23.4Z" fill="white"/>
</svg>
